ModelForces
version=1
nRows=4
nColumns=155
inDegrees=no

This file contains the forces exerted on a model during a simulation.

A force is a generalized force, meaning that it can be either a force (N) or a torque (Nm).

Units are S.I. units (second, meters, Newtons, ...)
Angles are in degrees.

endheader
time	glut_med1_r	glut_med2_r	glut_med3_r	glut_min1_r	glut_min2_r	glut_min3_r	semimem_r	semiten_r	bifemlh_r	bifemsh_r	sar_r	add_long_r	add_brev_r	add_mag1_r	add_mag2_r	add_mag3_r	tfl_r	pect_r	grac_r	glut_max1_r	glut_max2_r	glut_max3_r	iliacus_r	psoas_r	quad_fem_r	gem_r	peri_r	rect_fem_r	vas_med_r	vas_int_r	vas_lat_r	med_gas_r	lat_gas_r	soleus_r	tib_post_r	flex_dig_r	flex_hal_r	tib_ant_r	per_brev_r	per_long_r	per_tert_r	ext_dig_r	ext_hal_r	glut_med1_l	glut_med2_l	glut_med3_l	glut_min1_l	glut_min2_l	glut_min3_l	semimem_l	semiten_l	bifemlh_l	bifemsh_l	sar_l	add_long_l	add_brev_l	add_mag1_l	add_mag2_l	add_mag3_l	tfl_l	pect_l	grac_l	glut_max1_l	glut_max2_l	glut_max3_l	iliacus_l	psoas_l	quad_fem_l	gem_l	peri_l	rect_fem_l	vas_med_l	vas_int_l	vas_lat_l	med_gas_l	lat_gas_l	soleus_l	tib_post_l	flex_dig_l	flex_hal_l	tib_ant_l	per_brev_l	per_long_l	per_tert_l	ext_dig_l	ext_hal_l	ercspn_r	ercspn_l	intobl_r	intobl_l	extobl_r	extobl_l	femur_lat_meniscii_r.femur_lat_r.force.X	femur_lat_meniscii_r.femur_lat_r.force.Y	femur_lat_meniscii_r.femur_lat_r.force.Z	femur_lat_meniscii_r.femur_lat_r.torque.X	femur_lat_meniscii_r.femur_lat_r.torque.Y	femur_lat_meniscii_r.femur_lat_r.torque.Z	femur_lat_meniscii_r.meniscus_lat_r.force.X	femur_lat_meniscii_r.meniscus_lat_r.force.Y	femur_lat_meniscii_r.meniscus_lat_r.force.Z	femur_lat_meniscii_r.meniscus_lat_r.torque.X	femur_lat_meniscii_r.meniscus_lat_r.torque.Y	femur_lat_meniscii_r.meniscus_lat_r.torque.Z	femur_med_meniscii_r.femur_med_r.force.X	femur_med_meniscii_r.femur_med_r.force.Y	femur_med_meniscii_r.femur_med_r.force.Z	femur_med_meniscii_r.femur_med_r.torque.X	femur_med_meniscii_r.femur_med_r.torque.Y	femur_med_meniscii_r.femur_med_r.torque.Z	femur_med_meniscii_r.meniscus_med_r.force.X	femur_med_meniscii_r.meniscus_med_r.force.Y	femur_med_meniscii_r.meniscus_med_r.force.Z	femur_med_meniscii_r.meniscus_med_r.torque.X	femur_med_meniscii_r.meniscus_med_r.torque.Y	femur_med_meniscii_r.meniscus_med_r.torque.Z	femur_med_tibia_r.tibia_upper_r.force.X	femur_med_tibia_r.tibia_upper_r.force.Y	femur_med_tibia_r.tibia_upper_r.force.Z	femur_med_tibia_r.tibia_upper_r.torque.X	femur_med_tibia_r.tibia_upper_r.torque.Y	femur_med_tibia_r.tibia_upper_r.torque.Z	femur_med_tibia_r.femur_med_r.force.X	femur_med_tibia_r.femur_med_r.force.Y	femur_med_tibia_r.femur_med_r.force.Z	femur_med_tibia_r.femur_med_r.torque.X	femur_med_tibia_r.femur_med_r.torque.Y	femur_med_tibia_r.femur_med_r.torque.Z	femur_lat_tibia_r.tibia_upper_r.force.X	femur_lat_tibia_r.tibia_upper_r.force.Y	femur_lat_tibia_r.tibia_upper_r.force.Z	femur_lat_tibia_r.tibia_upper_r.torque.X	femur_lat_tibia_r.tibia_upper_r.torque.Y	femur_lat_tibia_r.tibia_upper_r.torque.Z	femur_lat_tibia_r.femur_lat_r.force.X	femur_lat_tibia_r.femur_lat_r.force.Y	femur_lat_tibia_r.femur_lat_r.force.Z	femur_lat_tibia_r.femur_lat_r.torque.X	femur_lat_tibia_r.femur_lat_r.torque.Y	femur_lat_tibia_r.femur_lat_r.torque.Z	aACL_R	pACL_R	aPCL_R	pPCL_R	aMCL_R	mMCL_R	pMCL_R	aLCL_R	mLCL_R	pLCL_R	aPCL_L	pPCL_L	aMCL_L	aLCL_L
      0.00000000	     37.48087652	     28.28714471	     30.25598133	     13.28977762	     14.47626353	     15.91713841	     41.91604554	     20.39409361	     37.70804409	     36.02754664	      7.58998984	     27.93927808	     20.68957741	     14.51222487	     12.16230296	     19.66717628	     12.69197704	     11.16605282	      7.77608382	     18.12681708	     27.55933735	     20.56469162	     63.94906620	     55.74758807	     18.09791099	      9.16719286	     20.03897647	     52.55469672	     32.38176469	     32.82510377	     40.14722941	     67.39492298	     31.74693446	    152.72720615	     92.44658902	     14.93332009	     15.26895791	     41.82851940	     21.62523106	     46.40594865	      8.86060096	     25.04818486	      7.96045570	     37.48087652	     28.28714471	     30.25598133	     13.28977762	     14.47626353	     15.91713841	     42.06683902	     20.39635155	     37.67631238	     36.01822118	      7.59254209	     27.93927808	     20.68957741	     14.51222487	     12.16230296	     19.66717628	     12.58139899	     11.16605282	      7.78214370	     18.12681708	     27.55933735	     20.56469162	     63.94906620	     55.74758807	     18.09791099	      9.16719286	     20.03897647	     52.59637061	     32.48786114	     37.22481259	     39.87514307	     67.71424671	     31.64857027	    152.72720615	     92.44658902	     14.93332009	     15.26895791	     41.82851940	     21.62523106	     46.40594865	      8.86060096	     25.04818486	      7.96045570	    124.99446086	    124.99446086	     44.97041513	     44.97041513	     60.98287244	     60.98287244	      0.13243531	      0.28299364	      0.00246511	     -0.00837665	      0.00349976	      0.05534422	     -0.13243531	     -0.28299364	     -0.00246511	      0.00891056	     -0.00419209	     -0.00454827	      0.08239412	      3.64420958	      0.29868801	     -0.04628927	     -0.00646305	      0.09076941	     -0.08239412	     -3.64420958	     -0.29868801	     -0.04962961	      0.00624440	     -0.06164219	      0.00000000	      0.00000000	      0.00000000	      0.00000000	      0.00000000	      0.00000000	      0.00000000	      0.00000000	      0.00000000	      0.00000000	      0.00000000	      0.00000000	      0.00000000	      0.00000000	      0.00000000	      0.00000000	      0.00000000	      0.00000000	      0.00000000	      0.00000000	      0.00000000	      0.00000000	      0.00000000	      0.00000000	     17.58855542	     41.35427838	      0.00000000	      0.00000000	      0.00000000	      4.34794595	     47.41152007	      1.86146449	      0.00000000	      2.98101398	      0.00000000	      0.00000000	      0.00000001	      0.00000000
      0.00100000	     37.47068608	     28.27022932	     30.24086714	     13.26950867	     14.46480712	     15.91260065	     42.57679380	     22.22992695	     38.71959882	     45.05919204	     12.41863714	     27.92554748	     20.64313666	     14.50364319	     12.15716021	     19.66293667	     12.49977363	     11.15324218	     10.51304621	     18.11779344	     27.54583488	     20.55620729	     63.92578024	     55.73415570	     18.08271668	      9.16509816	     20.03713766	     50.67725176	     28.80321391	     29.45127234	     36.22828154	     66.19450301	     31.19848447	    147.61309411	     91.83272693	     14.96063447	     15.24956695	     43.25983848	     21.52582320	     46.20566611	      9.29641343	     25.38153287	      8.07530089	     37.47068608	     28.27022932	     30.24086714	     13.26950867	     14.46480712	     15.91260065	     42.06228881	     20.39020965	     37.67123261	     35.98888344	      7.57882260	     27.92554748	     20.64313666	     14.50364319	     12.15716021	     19.66293667	     12.58033419	     11.15324218	      7.77413879	     18.11779344	     27.54583488	     20.55620729	     63.92578024	     55.73415570	     18.08271668	      9.16509816	     20.03713766	     52.58867645	     32.47668845	     37.21372981	     39.86386325	     67.70976811	     31.64643975	    152.71327822	     92.44307771	     14.93481584	     15.27019563	     41.82127614	     21.62263156	     46.40335095	      8.85785788	     25.04193096	      7.95792407	    124.81723588	    124.81723588	     44.95337082	     44.95337082	     60.96445217	     60.96445217	     -0.09893637	      1.32507458	      0.02759903	     -0.04681094	     -0.00272360	     -0.03761190	      0.09893637	     -1.32507458	     -0.02759903	      0.04312329	      0.00326213	     -0.00146331	     -1.00795915	      8.38963860	      0.92208738	     -0.20987105	      0.00500686	     -0.30329919	      1.00795915	     -8.38963860	     -0.92208738	     -0.10122660	      0.00095459	     -0.09101062	      0.00000000	      0.00000000	      0.00000000	      0.00000000	      0.00000000	      0.00000000	      0.00000000	      0.00000000	      0.00000000	      0.00000000	      0.00000000	      0.00000000	      0.00000000	      0.00000000	      0.00000000	      0.00000000	      0.00000000	      0.00000000	      0.00000000	      0.00000000	      0.00000000	      0.00000000	      0.00000000	      0.00000000	    -24.55908835	     -2.04775665	      0.00000000	      0.00000000	      0.00000000	    -55.70788455	    -13.86380739	    -56.31390018	      0.00000000	    -57.19138831	      0.00000000	      0.00000000	      0.00000001	      0.00000000
      0.00291040	     37.39561094	     28.15115440	     30.13299926	     13.14405806	     14.38648737	     15.87922824	     46.40434392	     32.03458978	     44.39639703	     89.65186939	     31.19290168	     27.82745456	     20.38285166	     14.44318752	     12.12006953	     19.63145847	     11.67653848	     11.06970828	     23.36658079	     18.05339166	     27.44936065	     20.49492762	     63.75833420	     55.63485187	     17.97930566	      9.14964111	     20.02324431	     42.50040780	     15.70304190	     16.75431212	     20.92331279	     60.06856462	     28.42247111	    120.07136644	     88.12348365	     15.18171380	     15.19421423	     52.11275023	     21.02606462	     45.10559026	     12.00747476	     27.26922071	      8.70253769	     37.39561094	     28.15115440	     30.13299926	     13.14405806	     14.38648737	     15.87922824	     42.02799746	     20.34513854	     37.63308662	     35.78850543	      7.49715479	     27.82745456	     20.38285166	     14.44318752	     12.12006953	     19.63145847	     12.57229313	     11.06970828	      7.72107101	     18.05339166	     27.44936065	     20.49492762	     63.75833420	     55.63485187	     17.97930566	      9.14964111	     20.02324431	     52.53098640	     32.39522179	     37.13239427	     39.78091559	     67.67580847	     31.63028648	    152.60803374	     92.41639349	     14.94575773	     15.27917280	     41.76716957	     21.60306540	     46.38362081	      8.83777390	     24.99561161	      7.93925440	    123.70394495	    123.70394495	     44.82965086	     44.82965086	     60.83160162	     60.83160162	     -6.83063322	     17.94884117	      2.45473983	     -1.51512940	     -0.20470784	     -2.76681956	      6.83063322	    -17.94884117	     -2.45473983	      0.66378385	      0.24238473	      0.12234962	    -10.50416158	     46.27235865	      9.65458379	     -3.13117521	      0.03226452	     -3.76042475	     10.50416158	    -46.27235865	     -9.65458379	     -0.34350538	      0.03095275	     -0.32300545	      0.00000000	      0.00000000	      0.00000000	      0.00000000	      0.00000000	      0.00000000	      0.00000000	      0.00000000	      0.00000000	      0.00000000	      0.00000000	      0.00000000	      0.00000000	      0.00000000	      0.00000000	      0.00000000	      0.00000000	      0.00000000	      0.00000000	      0.00000000	      0.00000000	      0.00000000	      0.00000000	      0.00000000	    -61.20216102	    -44.72709080	      0.00000000	      0.00000000	      0.00000000	    -92.66803576	    -53.98600863	    -86.26587896	      0.00000000	    -89.31996369	      0.00000000	      0.00000000	      0.00000001	      0.00000000
      0.00482081	     37.25040092	     27.93447225	     29.93312298	     12.94877921	     14.24922486	     15.81483540	     53.86204147	     48.49143844	     54.59520614	    149.34755993	     48.57679514	     27.64544161	     20.01783252	     14.33305391	     12.05036419	     19.56991359	     10.76794526	     10.93155828	     39.19942395	     17.93403363	     27.27030316	     20.37954155	     63.44487813	     55.44185712	     17.79908330	      9.11967580	     19.99540839	     34.85498100	      7.84210580	      8.47615710	     10.42732632	     53.98102752	     25.69092742	     87.09362045	     82.66757827	     15.59786057	     15.21144451	     64.19014677	     20.47091547	     43.67773279	     14.58402832	     29.85756389	      9.50569857	     37.25040092	     27.93447225	     29.93312298	     12.94877921	     14.24922486	     15.81483540	     41.95953958	     20.25843362	     37.55731557	     35.43771995	      7.37533963	     27.64544161	     20.01783252	     14.33305391	     12.05036419	     19.56991359	     12.55619410	     10.93155828	      7.63154573	     17.93403363	     27.27030316	     20.37954155	     63.44487813	     55.44185712	     17.79908330	      9.11967580	     19.99540839	     52.41664350	     32.23982325	     36.97587865	     39.62084676	     67.60742272	     31.59776352	    152.39713988	     92.36248706	     14.96655135	     15.29599384	     41.66048974	     21.56407476	     46.34379665	      8.79925600	     24.90563869	      7.90321876	    121.94162236	    121.94162236	     44.59515125	     44.59515125	     60.58189070	     60.58189070	    -18.24993129	     61.69988608	      9.89808336	     -5.80794406	     -0.57250288	     -7.27253464	     18.24993129	    -61.69988608	     -9.89808336	      2.31799550	      0.67642108	      0.19004607	    -13.40200751	    117.87271292	     28.79930796	     -9.72815789	     -0.23317731	     -3.96512508	     13.40200751	   -117.87271292	    -28.79930796	     -0.74181570	      0.33226144	     -1.31270939	      3.34433992	    -20.84494639	     -1.26182081	     -0.11318471	     -0.00500979	     -0.19112321	     -3.34433992	     20.84494639	      1.26182081	     -0.26525691	      0.02346920	     -1.11684611	      0.00000000	      0.00000000	      0.00000000	      0.00000000	      0.00000000	      0.00000000	      0.00000000	      0.00000000	      0.00000000	      0.00000000	      0.00000000	      0.00000000	    -60.28787602	    -50.33336603	      0.00000000	      0.00000000	      0.00000000	    -90.29897904	    -54.29582055	    -91.96535762	      0.00000000	    -95.49723914	      0.00000000	      0.00000000	      0.00000001	      0.00000000
